# xmcd
#
# Track frame offsets: 
#        150
#        38155
#        61018
#        87019
#        103899
#        130129
#        150521
#        175247
#        203085
#        227015
#
# Disc length: 3312 seconds
#
# Revision: 0
# Processed by: cddbd v1.5.2PL0 Copyright (c) Steve Scherf et al.
# Submitted via: ExactAudioCopy v1.0b3
#
DISCID=750cee0a
DTITLE=Thanh Tuyen - Goi Nguoi Ngan Dam
DYEAR=1992
DGENRE=
TTITLE0=Que huong moi goi
TTITLE1=Chuyen buon ngay Xuan
TTITLE2=Mot lan di
TTITLE3=Goi nguoi ngan dam
TTITLE4=Tren bon vung chien thuat
TTITLE5=Mau chay ve tim
TTITLE6=Chap tay nguyen cau
TTITLE7=Sai Gon vinh biet tinh ta
TTITLE8=Chang la ai
TTITLE9=Sau le bong
EXTD=
EXTT0=
EXTT1=
EXTT2=
EXTT3=
EXTT4=
EXTT5=
EXTT6=
EXTT7=
EXTT8=
EXTT9=
PLAYORDER=
